<svg width="186" height="60" viewBox="0 0 186 60" fill="none" xmlns="http://www.w3.org/2000/svg">
<path d="M103.472 15.7022V24.4549H101.76V15.7022H103.472ZM110.501 20.3407V24.4549H108.863V20.691C108.863 19.9284 108.563 19.5538 107.963 19.5538C107.3 19.5538 106.838 20.1036 106.838 21.1044V24.4549H105.225V18.1152H106.613L106.738 18.9408C107.075 18.3035 107.65 17.9777 108.451 17.9777C109.788 17.9777 110.501 18.8787 110.501 20.3407H110.501ZM117.407 20.3407V24.4549H115.769V20.691C115.769 19.9284 115.468 19.5538 114.869 19.5538C114.206 19.5538 113.743 20.1036 113.743 21.1044V24.4549H112.13V18.1152H113.518L113.643 18.9408C113.981 18.3035 114.556 17.9777 115.356 17.9777C116.694 17.9777 117.407 18.8787 117.407 20.3407H117.407ZM124.287 18.9032C124.926 19.5161 125.238 20.304 125.238 21.2794C125.238 22.2548 124.926 23.055 124.287 23.6669C123.637 24.2622 122.787 24.5923 121.905 24.5923C121.024 24.5923 120.174 24.2622 119.523 23.6669C118.898 23.055 118.586 22.2548 118.586 21.2794C118.586 20.3041 118.898 19.5161 119.523 18.9032C120.174 18.3079 121.024 17.9777 121.905 17.9777C122.787 17.9777 123.637 18.3079 124.287 18.9032ZM120.724 19.9783C120.407 20.3357 120.241 20.8022 120.262 21.2794C120.244 21.7597 120.409 22.2288 120.724 22.5918C120.873 22.7583 121.056 22.8905 121.261 22.9791C121.467 23.0677 121.689 23.1106 121.912 23.1049C122.874 23.1049 123.55 22.3291 123.55 21.2794C123.55 20.2165 122.9 19.4529 121.912 19.4529C121.687 19.4467 121.464 19.4906 121.259 19.5814C121.053 19.6723 120.87 19.8079 120.724 19.9783H120.724ZM131.881 18.1152L129.58 24.4549H127.93L125.641 18.1152H127.392L128.629 22.0043L128.755 22.5541L128.88 22.0043L130.118 18.1152H131.881ZM137.711 20.2908V24.4549H136.323L136.224 23.6801C135.823 24.292 135.223 24.5923 134.41 24.5923C133.26 24.5923 132.484 23.8797 132.484 22.7669C132.484 21.6042 133.21 21.0666 134.448 20.8661L136.085 20.5667V20.3285C136.085 19.6912 135.786 19.3664 135.198 19.3664C134.647 19.3664 134.247 19.7034 134.247 20.2033H132.672C132.76 18.8909 133.735 17.9777 135.198 17.9777C136.748 17.9777 137.711 18.7779 137.711 20.2908H137.711ZM136.085 21.6541L134.823 21.9168C134.347 22.0287 134.11 22.2663 134.11 22.6294C134.11 23.0173 134.385 23.2545 134.848 23.2545C135.053 23.2608 135.256 23.2105 135.435 23.109C135.613 23.0076 135.76 22.8589 135.86 22.6794C136.015 22.4279 136.093 22.1367 136.085 21.8415L136.085 21.6541ZM141.315 16.5778L141.303 18.1152H142.754V19.5914H141.291L141.265 22.154C141.265 22.8168 141.478 23.0672 142.091 23.0672C142.315 23.0703 142.538 23.0408 142.754 22.9797V24.405C142.422 24.5077 142.075 24.5541 141.727 24.5425C140.315 24.5425 139.627 23.9418 139.64 22.5419L139.665 19.5914H138.627V18.1152H139.665L139.678 16.5778H141.315ZM145.857 16.252C145.862 16.4484 145.808 16.6419 145.703 16.8077C145.598 16.9736 145.445 17.1042 145.265 17.1829C145.085 17.2617 144.886 17.2849 144.692 17.2497C144.499 17.2146 144.321 17.1225 144.18 16.9854C144.039 16.8483 143.943 16.6723 143.902 16.48C143.862 16.2877 143.88 16.0877 143.954 15.9057C144.028 15.7237 144.155 15.5679 144.318 15.4582C144.481 15.3485 144.673 15.2899 144.869 15.2899C145.128 15.2868 145.377 15.3864 145.562 15.5668C145.747 15.7471 145.853 15.9936 145.857 16.252H145.857ZM145.682 18.1152V24.4549H144.057V18.1152H145.682ZM152.673 18.9032C153.31 19.5161 153.623 20.304 153.623 21.2794C153.623 22.2548 153.31 23.055 152.673 23.6669C152.022 24.2622 151.173 24.5923 150.291 24.5923C149.409 24.5923 148.559 24.2622 147.908 23.6669C147.283 23.055 146.971 22.2548 146.971 21.2794C146.971 20.3041 147.283 19.5161 147.908 18.9032C148.559 18.3079 149.409 17.9777 150.291 17.9777C151.173 17.9777 152.022 18.3079 152.673 18.9032ZM149.109 19.9783C148.792 20.3357 148.626 20.8022 148.646 21.2794C148.628 21.7597 148.794 22.2288 149.109 22.5918C149.258 22.7583 149.441 22.8905 149.646 22.9791C149.851 23.0677 150.073 23.1106 150.297 23.1049C151.26 23.1049 151.935 22.3291 151.935 21.2794C151.935 20.2165 151.284 19.4529 150.297 19.4529C150.072 19.4467 149.849 19.4906 149.643 19.5814C149.438 19.6723 149.255 19.8079 149.109 19.9783H149.109ZM160.18 20.3407V24.4549H158.541V20.691C158.541 19.9284 158.242 19.5538 157.641 19.5538C156.979 19.5538 156.516 20.1036 156.516 21.1044V24.4549H154.903V18.1152H156.291L156.416 18.9408C156.754 18.3035 157.329 17.9777 158.129 17.9777C159.467 17.9777 160.18 18.8787 160.18 20.3407H160.18ZM166.147 19.9783H164.534C164.521 19.4906 164.271 19.2534 163.808 19.2534C163.358 19.2534 163.109 19.4906 163.109 19.8785C163.109 20.2786 163.358 20.4537 164.221 20.6034C165.721 20.8539 166.284 21.4668 166.284 22.5297C166.284 23.8919 165.247 24.5923 163.834 24.5923C162.295 24.5923 161.395 23.7921 161.358 22.5297H162.958C162.971 23.0418 163.284 23.3044 163.871 23.3044C164.371 23.3044 164.659 23.0917 164.659 22.7048C164.659 22.2914 164.409 22.0797 163.509 21.9168C162.12 21.6795 161.483 21.0789 161.483 20.0414C161.475 19.7679 161.525 19.4959 161.631 19.2436C161.737 18.9912 161.895 18.7644 162.096 18.5784C162.508 18.1783 163.083 17.978 163.821 17.9777C165.159 17.9777 166.097 18.7779 166.147 19.9783H166.147ZM173.49 15.3021V16.7529C173.285 16.6656 173.064 16.6189 172.841 16.6155C172.278 16.6155 172.003 16.9026 172.003 17.49V18.1152H173.453V19.5914H172.003V24.4549H170.365V19.5914H169.364V18.1152H170.365V17.4534C170.365 15.9649 171.165 15.1901 172.652 15.1901C172.935 15.1886 173.217 15.2263 173.49 15.3021H173.49ZM179.758 18.9031C180.395 19.516 180.708 20.304 180.708 21.2794C180.708 22.2548 180.395 23.055 179.758 23.6669C179.107 24.2622 178.257 24.5923 177.375 24.5923C176.494 24.5923 175.644 24.2622 174.993 23.6669C174.368 23.055 174.055 22.2548 174.055 21.2794C174.055 20.304 174.368 19.516 174.993 18.9031C175.644 18.3078 176.494 17.9777 177.375 17.9777C178.257 17.9777 179.107 18.3078 179.758 18.9031ZM176.193 19.9783C175.877 20.3357 175.711 20.8022 175.731 21.2794C175.713 21.7596 175.878 22.2288 176.193 22.5917C176.342 22.7583 176.526 22.8905 176.731 22.9791C176.936 23.0677 177.158 23.1106 177.382 23.1049C178.345 23.1049 179.02 22.3291 179.02 21.2794C179.02 20.2165 178.369 19.4529 177.382 19.4529C177.157 19.4467 176.934 19.4906 176.728 19.5814C176.523 19.6723 176.34 19.8079 176.193 19.9783L176.193 19.9783ZM185.412 19.6789C184.962 19.6592 184.517 19.7911 184.15 20.0536C183.837 20.3041 183.662 20.6909 183.638 21.2285V24.4549H182.012V18.1152H183.412L183.562 19.1282C183.8 18.4908 184.413 18.053 185.412 18.053L185.412 19.6789ZM104.573 30.7152C105.51 30.7152 106.261 30.9779 106.81 31.5033C107.373 32.0154 107.648 32.7036 107.648 33.5415C107.663 33.9215 107.596 34.3002 107.451 34.6519C107.307 35.0036 107.088 35.3201 106.81 35.5798C106.248 36.1041 105.51 36.3668 104.573 36.3668H103.472V39.4679H101.76V30.7152H104.573ZM103.472 32.3157V34.7541H104.573C105.385 34.7541 105.898 34.3041 105.898 33.5415C105.898 32.7535 105.385 32.3157 104.573 32.3157H103.472ZM113.979 33.9162C114.617 34.5291 114.93 35.317 114.93 36.2924C114.93 37.2679 114.617 38.068 113.979 38.6799C113.328 39.2752 112.479 39.6054 111.597 39.6054C110.715 39.6054 109.866 39.2752 109.215 38.6799C108.59 38.068 108.277 37.2678 108.277 36.2924C108.277 35.3171 108.59 34.529 109.215 33.9162C109.866 33.3209 110.715 32.9907 111.597 32.9907C112.479 32.9907 113.328 33.3209 113.979 33.9162ZM110.415 34.9913C110.099 35.3488 109.933 35.8152 109.953 36.2924C109.935 36.7727 110.101 37.2418 110.415 37.6048C110.564 37.7713 110.748 37.9035 110.953 37.9921C111.158 38.0807 111.38 38.1236 111.604 38.1179C112.566 38.1179 113.242 37.3421 113.242 36.2924C113.242 35.2295 112.591 34.466 111.604 34.466C111.379 34.4597 111.156 34.5036 110.95 34.5945C110.745 34.6853 110.562 34.8209 110.415 34.9913ZM121.573 33.1282L119.272 39.4679H117.622L115.334 33.1282H117.084L118.322 37.0173L118.447 37.5671L118.573 37.0173L119.81 33.1282H121.573ZM128.053 36.2925V36.7923H123.64C123.689 37.6425 124.277 38.2177 125.165 38.2177C125.828 38.2177 126.252 37.9672 126.44 37.4796H128.015C127.615 38.8428 126.628 39.6054 125.115 39.6054C124.177 39.6054 123.414 39.3054 122.826 38.7054C122.251 38.0925 121.963 37.2922 121.964 36.3047C121.964 35.3415 122.251 34.5412 122.839 33.9284C123.129 33.6185 123.483 33.3745 123.875 33.2127C124.268 33.0509 124.69 32.9752 125.115 32.9907C126.865 32.9908 128.053 34.129 128.053 36.2924L128.053 36.2925ZM126.415 35.6673C126.403 34.8671 125.877 34.3418 125.077 34.3418C124.277 34.3418 123.739 34.8793 123.652 35.6673H126.415ZM132.833 34.692C132.382 34.6722 131.938 34.8041 131.571 35.0667C131.258 35.3172 131.083 35.704 131.058 36.2416V39.4679H129.433V33.1282H130.833L130.983 34.1412C131.22 33.5038 131.833 33.0661 132.833 33.0661L132.833 34.692ZM136.074 31.5908L136.062 33.1282H137.512V34.6044H136.049L136.024 37.167C136.024 37.8298 136.237 38.0803 136.85 38.0803C137.074 38.0833 137.297 38.0538 137.512 37.9927V39.4181C137.181 39.5207 136.834 39.5672 136.487 39.5555C135.074 39.5555 134.386 38.9548 134.399 37.5549L134.423 34.6044H133.386V33.1282H134.423L134.437 31.5908H136.074ZM144.291 33.1282L141.028 42.1557H139.34L140.303 39.3926L138.052 33.1281H139.803L141.04 37.0173L141.165 37.5671L141.291 37.0173L142.529 33.1282L144.291 33.1282ZM152.386 30.7153L155.774 39.4679H153.911L153.186 37.5295H149.697L148.972 39.4679H147.109L150.497 30.7153H152.386ZM151.436 32.8034L151.273 33.291L150.236 36.0298H152.636L151.598 33.2911L151.436 32.8034ZM162.481 35.367H160.905C160.816 35.0934 160.639 34.857 160.402 34.6941C160.165 34.5312 159.88 34.451 159.593 34.4659C159.381 34.4628 159.172 34.5085 158.981 34.5997C158.79 34.6908 158.623 34.8248 158.492 34.9913C158.191 35.3611 158.036 35.8281 158.055 36.3046C158.055 37.3543 158.717 38.1179 159.63 38.1179C159.912 38.1305 160.19 38.0506 160.423 37.8904C160.655 37.7301 160.829 37.4982 160.918 37.2301H162.506C162.205 38.7674 161.068 39.6054 159.555 39.6054C158.618 39.6054 157.854 39.305 157.267 38.6931C156.679 38.0802 156.379 37.28 156.379 36.3046C156.35 35.4265 156.669 34.5723 157.267 33.9284C157.561 33.6202 157.917 33.3775 158.311 33.216C158.705 33.0544 159.129 32.9776 159.555 32.9906C161.106 32.9908 162.243 33.8165 162.481 35.367L162.481 35.367ZM165.812 31.5908L165.798 33.1282H167.249V34.6044H165.786L165.762 37.167C165.762 37.8298 165.974 38.0802 166.586 38.0802C166.81 38.0833 167.034 38.0538 167.249 37.9927V39.418C166.918 39.5208 166.571 39.5672 166.224 39.5555C164.811 39.5555 164.124 38.9548 164.136 37.5549L164.161 34.6044H163.123V33.1282H164.161L164.174 31.5908H165.812ZM170.352 31.265C170.357 31.4614 170.304 31.6549 170.199 31.8207C170.093 31.9866 169.941 32.1172 169.761 32.1959C169.581 32.2747 169.381 32.2979 169.188 32.2627C168.995 32.2276 168.816 32.1355 168.675 31.9984C168.535 31.8613 168.438 31.6853 168.398 31.493C168.358 31.3007 168.376 31.1007 168.45 30.9187C168.524 30.7367 168.65 30.5809 168.813 30.4712C168.976 30.3615 169.168 30.3029 169.365 30.3029C169.623 30.2998 169.872 30.3993 170.058 30.5797C170.243 30.7601 170.349 31.0065 170.352 31.265L170.352 31.265ZM170.177 33.1282V39.4679H168.552V33.1282L170.177 33.1282ZM177.169 33.9162C177.806 34.5291 178.118 35.317 178.118 36.2924C178.118 37.2678 177.806 38.068 177.169 38.6799C176.518 39.2752 175.668 39.6054 174.786 39.6054C173.904 39.6054 173.054 39.2752 172.404 38.6799C171.779 38.068 171.466 37.2678 171.466 36.2924C171.466 35.3171 171.779 34.529 172.404 33.9162C173.054 33.3209 173.904 32.9907 174.786 32.9907C175.668 32.9907 176.518 33.3209 177.169 33.9162ZM173.604 34.9913C173.287 35.3487 173.122 35.8152 173.142 36.2924C173.124 36.7727 173.289 37.2418 173.604 37.6048C173.753 37.7713 173.937 37.9035 174.142 37.9921C174.347 38.0807 174.569 38.1236 174.792 38.1179C175.755 38.1179 176.43 37.3421 176.43 36.2924C176.43 35.2295 175.78 34.4659 174.792 34.4659C174.568 34.4597 174.344 34.5036 174.139 34.5945C173.933 34.6854 173.751 34.8209 173.604 34.9913L173.604 34.9913ZM184.674 35.3537V39.4679H183.036V35.704C183.036 34.9414 182.736 34.5668 182.136 34.5668C181.473 34.5668 181.011 35.1166 181.011 36.1174V39.4679H179.397V33.1282H180.786L180.91 33.9539C181.248 33.3165 181.823 32.9907 182.624 32.9907C183.962 32.9908 184.674 33.8918 184.674 35.3537L184.674 35.3537ZM14.0683 42.941C14.0683 45.1839 14.5446 45.3873 18.6901 45.7275V46.4071H0V45.7275C4.14564 45.3873 4.62119 45.1839 4.62119 42.941V17.182C4.62119 14.5316 4.14569 14.3276 0 13.988V13.3085H11.1055L14.0683 16.7426V42.941ZM95.5504 42.3989C94.3934 43.0796 93.2371 43.7599 92.2844 43.7599C91.1963 43.7599 90.516 43.1477 90.516 41.9911V23.4306C90.5841 17.6478 86.4336 13.1575 78.4057 13.1575C76.2199 13.1443 74.0523 13.5546 72.0225 14.3658C72.3491 14.7171 72.5079 14.9354 72.7677 15.2353C73.1697 15.169 73.5761 15.1338 73.9835 15.1303C79.0179 15.1303 81.0594 18.736 81.0594 22.9539V28.1804C65.8881 29.2004 62.6903 34.7115 62.6903 38.9294C62.6903 43.352 65.5476 46.8215 70.7182 46.8215C74.7999 46.8215 78.2702 44.7126 80.9232 41.3789H81.0594V42.3308C81.0594 44.7807 82.4881 46.8215 85.9576 46.8215C89.4953 46.8215 92.8967 44.985 95.6182 42.876L95.5504 42.3989ZM81.0594 40.6979C79.6307 41.6505 78.2701 42.5351 76.501 42.5351C73.7798 42.5351 72.283 40.6979 72.283 36.8204C72.283 31.9223 74.7999 29.609 81.0594 28.8606V40.6979ZM44.4256 13.3443C40.7235 13.3443 36.9716 15.3898 34.6384 17.9193V13.3085H20.5693V13.9881C24.7157 14.3276 25.1912 14.5316 25.1912 17.182V56.5338C25.1912 58.7767 24.7157 58.9808 20.5693 59.3202V59.9998H39.2602V59.3202C35.1138 58.9807 34.6384 58.7767 34.6384 56.5338V18.8463C36.0118 17.8307 38.2744 16.7423 40.0759 16.7423C44.4937 16.7423 48.1631 21.092 48.1631 31.4229C48.1631 35.1759 47.173 47.8063 47.173 47.8063C53.3847 45.6625 58.1545 39.6904 58.1545 31.0147C58.1545 20.8199 53.0571 13.3443 44.4256 13.3443Z" fill="#21212A"/>
<path d="M25.1913 27.2358L10.4145 7.77158C9.47667 8.11123 8.44585 8.08875 7.52371 7.70853C6.60157 7.32831 5.85447 6.61772 5.42858 5.71576C5.00268 4.81381 4.92863 3.78541 5.22092 2.83174C5.5132 1.87808 6.1508 1.06778 7.00895 0.559377C7.86711 0.0509723 8.88408 -0.118956 9.8609 0.0828359C10.8377 0.284628 11.7041 0.843621 12.2906 1.65045C12.877 2.45729 13.1413 3.4539 13.0318 4.44532C12.9223 5.43673 12.4468 6.35162 11.6984 7.01098L25.1913 24.7841L25.1913 27.2358ZM68.8627 13.7775C68.0392 13.302 67.0733 13.1354 66.1382 13.3074C65.203 13.4795 64.3597 13.979 63.7593 14.7164C63.159 15.4537 62.8408 16.3808 62.862 17.3315C62.8831 18.2821 63.2421 19.1942 63.8747 19.9041L44.2849 41.9973C43.9241 41.53 43.4644 41.1483 42.9386 40.8796C42.4129 40.611 41.8342 40.4621 41.2441 40.4436C40.6541 40.4251 40.0672 40.5374 39.5257 40.7725C38.9841 41.0077 38.5014 41.3598 38.112 41.8036L34.6384 37.2281V39.6797L37.3152 43.2056C37.2832 43.3043 37.2537 43.4043 37.229 43.5068C37.0868 44.0981 37.0813 44.714 37.2128 45.3077C37.3444 45.9015 37.6095 46.4574 37.9882 46.9333C38.3668 47.4092 38.8489 47.7926 39.3979 48.0542C39.9469 48.3158 40.5483 48.4489 41.1564 48.4432C41.7646 48.4375 42.3634 48.2933 42.9074 48.0215C43.4515 47.7497 43.9264 47.3575 44.2961 46.8747C44.6658 46.3918 44.9206 45.831 45.0411 45.2349C45.1615 44.6388 45.1446 44.0231 44.9914 43.4346L65.0518 20.8106C65.9814 21.2821 67.0583 21.3722 68.0534 21.0618C69.0484 20.7514 69.883 20.0649 70.3796 19.1485C70.8762 18.232 70.9956 17.1579 70.7122 16.1548C70.4289 15.1517 69.7653 14.2988 68.8627 13.7775V13.7775Z" fill="#49AC57"/>
</svg>
